<svg width="60" height="58" viewBox="0 0 60 58" fill="none" xmlns="http://www.w3.org/2000/svg">
<path fill-rule="evenodd" clip-rule="evenodd" d="M29.8788 0C13.3708 0 0 13.3057 0 29.7335C0 42.8906 8.5528 54.0035 20.4296 57.9432C21.9236 58.2034 22.4838 57.3114 22.4838 56.5309C22.4838 55.8247 22.4464 53.4832 22.4464 50.993C14.9394 52.3682 12.9973 49.1718 12.3997 47.4993C12.0636 46.6445 10.607 44.0056 9.33712 43.2994C8.29136 42.7419 6.79742 41.3668 9.29977 41.3296C11.6527 41.2924 13.3334 43.4853 13.8936 44.3773C16.5827 48.8745 20.8778 47.6108 22.5958 46.8303C22.8573 44.8976 23.6416 43.5968 24.5006 42.8534C17.8526 42.1101 10.9058 39.5456 10.9058 28.1725C10.9058 24.939 12.0636 22.263 13.9683 20.1816C13.6695 19.4383 12.6238 16.3906 14.2671 12.3022C14.2671 12.3022 16.7695 11.5217 22.4838 15.3499C24.8741 14.6809 27.4138 14.3464 29.9535 14.3464C32.4932 14.3464 35.0329 14.6809 37.4232 15.3499C43.1375 11.4846 45.6398 12.3022 45.6398 12.3022C47.2832 16.3906 46.2374 19.4383 45.9386 20.1816C47.8434 22.263 49.0012 24.9018 49.0012 28.1725C49.0012 39.5827 42.017 42.1101 35.369 42.8534C36.4521 43.7826 37.3858 45.5666 37.3858 48.3541C37.3858 52.331 37.3485 55.5274 37.3485 56.5309C37.3485 57.3114 37.9087 58.2405 39.4026 57.9432C51.2048 54.0035 59.7576 42.8534 59.7576 29.7335C59.7576 13.3057 46.3868 0 29.8788 0Z" fill="white"/>
</svg>
